HIERARCHY
ROOT Hips
{
  OFFSET 74.2043 94.1881 23.3759
  CHANNELS 6 Xposition Yposition Zposition Zrotation Xrotation Yrotation
  JOINT spine
  {
    OFFSET 0 7.80059 0.448573
    CHANNELS 3 Zrotation Xrotation Yrotation
    JOINT spine1
    {
      OFFSET 0 10.1364 0
      CHANNELS 3 Zrotation Xrotation Yrotation
      JOINT spine2
      {
        OFFSET 0 9.71251 0
        CHANNELS 3 Zrotation Xrotation Yrotation
        JOINT Neck
        {
          OFFSET 0 24.9361 1.18887
          CHANNELS 3 Zrotation Xrotation Yrotation
          JOINT Head
          {
            OFFSET 0 7.53384 0
            CHANNELS 3 Zrotation Xrotation Yrotation
            End Site
            {
              OFFSET 0 18.2361 -6.01402
            }
          }
        }
        JOINT RightShoulder
        {
          OFFSET -4.08965 10.4888 -0.569457
          CHANNELS 3 Zrotation Xrotation Yrotation
          JOINT RightArm
          {
            OFFSET 0 13.757 0
            CHANNELS 3 Zrotation Xrotation Yrotation
            JOINT RightArmRoll
            {
              OFFSET 0 6.94478 0
              CHANNELS 3 Zrotation Xrotation Yrotation
              JOINT RightForeArm
              {
                OFFSET 0 20.2277 0
                CHANNELS 3 Zrotation Xrotation Yrotation
                JOINT RightForeArmRoll
                {
                  OFFSET 0 7.79312 0
                  CHANNELS 3 Zrotation Xrotation Yrotation
                  JOINT RightHand
                  {
                    OFFSET 0 15.6391 0
                    CHANNELS 3 Zrotation Xrotation Yrotation
                    End Site
                    {
                      OFFSET 0 0 0
                    }
                  }
                }
              }
            }
          }
        }
        JOINT LeftShoulder
        {
          OFFSET 4.08965 10.4888 -0.569457
          CHANNELS 3 Zrotation Xrotation Yrotation
          JOINT LeftArm
          {
            OFFSET 0 13.757 0
            CHANNELS 3 Zrotation Xrotation Yrotation
            JOINT LeftArmRoll
            {
              OFFSET 0 6.94478 0
              CHANNELS 3 Zrotation Xrotation Yrotation
              JOINT LeftForeArm
              {
                OFFSET 0 20.2277 0
                CHANNELS 3 Zrotation Xrotation Yrotation
                JOINT LeftForeArmRoll
                {
                  OFFSET 0 7.79312 0
                  CHANNELS 3 Zrotation Xrotation Yrotation
                  JOINT LeftHand
                  {
                    OFFSET 0 15.6391 0
                    CHANNELS 3 Zrotation Xrotation Yrotation
                    End Site
                    {
                      OFFSET 0 0 0
                    }
                  }
                }
              }
            }
          }
        }
      }
    }
  }
  JOINT RightUpLeg
  {
    OFFSET -6.91416 -1.26788 -1.06358
    CHANNELS 3 Zrotation Xrotation Yrotation
    JOINT RightUpLegRoll
    {
      OFFSET 0 18.3378 0
      CHANNELS 3 Zrotation Xrotation Yrotation
      JOINT RightLeg
      {
        OFFSET 0 -22.7085 0
        CHANNELS 3 Zrotation Xrotation Yrotation
        JOINT RightLegRoll
        {
          OFFSET 0 22.7828 0
          CHANNELS 3 Zrotation Xrotation Yrotation
          JOINT RightFoot
          {
            OFFSET 0 18.9629 0
            CHANNELS 3 Zrotation Xrotation Yrotation
            JOINT RightToeBase
            {
              OFFSET 0 15.852 0
              CHANNELS 3 Zrotation Xrotation Yrotation
              End Site
              {
                OFFSET 0.00671906 7.677 -0.884893
              }
            }
          }
        }
      }
    }
  }
  JOINT LeftUpLeg
  {
    OFFSET 6.91416 -1.26788 -1.06358
    CHANNELS 3 Zrotation Xrotation Yrotation
    JOINT LeftUpLegRoll
    {
      OFFSET 0 18.3379 0
      CHANNELS 3 Zrotation Xrotation Yrotation
      JOINT LeftLeg
      {
        OFFSET 0 22.7084 0
        CHANNELS 3 Zrotation Xrotation Yrotation
        JOINT LeftLegRoll
        {
          OFFSET 0 22.9934 0
          CHANNELS 3 Zrotation Xrotation Yrotation
          JOINT LeftFoot
          {
            OFFSET 0 18.7522 0
            CHANNELS 3 Zrotation Xrotation Yrotation
            JOINT LeftToeBase
            {
              OFFSET 0 15.852 0
              CHANNELS 3 Zrotation Xrotation Yrotation
              End Site
              {
                OFFSET -0.030112 7.67701 -0.884893
              }
            }
          }
        }
      }
    }
  }
}
MOTION
Frames: 11
Frame Time: 0.00208333
86.1209 94.1748 19.8656 -5.39182 8.2545 67.6468 -1.07728 0.145474 1.94835 -2.18928 4.26093 4.04154 -2.24147 5.90356 4.08312 -47.3811 -29.571 -13.461 36.4207 11.699 -6.93621 12.2345 -6.38936 -0.739517 -96.5416 54.61 -136.348 -9.54166e-015 1.59028e-014 3.18055e-015 -18.5847 23.2311 3.37256 -7.4593e-006 -4.94057e-006 -3.00114 8.02972 -4.95127 0.697425 -78.5651 -17.2027 9.27082 -101.72 21.461 -10.3454 -3.73249e-006 8.44189e-007 8.132e-007 -2.12295 22.7744 1.56461 1.02017e-005 1.07713e-006 3.00001 -8.02991 -4.95137 -0.697656 166.922 -10.6156 6.57649 180 7.01488e-015 178.692 179.665 16.619 179.197 1.36967e-006 -3.0466e-006 0.313053 -19.2976 68.7859 20.2134 8.17031 27.1763 -0.896076 170.474 16.375 13.322 4.54188e-006 -4.6773e-006 -0.986399 -6.81028 -9.15193 -0.429356 -1.38162e-006 -7.33523e-006 0.0180232 25.2911 72.2337 -24.2257 -8.13043 25.233 3.48515 
86.1502 94.178 19.8732 -5.48511 8.2549 67.7926 -1.07696 0.144862 1.94787 -2.18901 4.26017 4.04067 -2.24119 5.90279 4.08224 -47.3499 -29.6275 -13.5509 36.4008 11.7234 -7.01099 12.2196 -6.42127 -0.784309 -96.9089 54.3128 -136.996 -9.54166e-015 -6.36111e-015 1.27222e-014 -18.5587 21.5172 3.02555 -7.4593e-006 -4.94057e-006 -3.00114 8.02972 -4.95127 0.697425 -78.5759 -17.2041 9.2706 -101.713 21.2144 -10.4406 -3.73249e-006 8.44189e-007 8.132e-007 -2.13995 22.7988 1.57294 1.02017e-005 1.07713e-006 3.00001 -8.02991 -4.95137 -0.697656 166.994 -10.5975 6.52306 180 -7.01489e-015 178.694 179.69 16.59 179.193 1.36967e-006 -3.0466e-006 0.313936 -19.3125 68.8039 20.2302 8.17328 27.0759 -1.02819 170.477 16.4084 13.3386 4.54188e-006 -4.6773e-006 -0.983423 -6.79552 -9.10609 -0.425429 -1.38162e-006 -7.33523e-006 0.0185968 25.2585 72.2264 -24.2136 -8.13043 25.233 3.48515 
86.1793 94.1909 19.885 -5.57692 8.25261 67.9365 -1.07649 0.144524 1.94691 -2.18833 4.25989 4.03879 -2.24048 5.90251 4.08036 -47.3165 -29.6848 -13.6382 36.3815 11.7481 -7.08338 12.2044 -6.44893 -0.82291 -97.2976 54.021 -137.535 -5.29669e-030 -3.18055e-014 -9.54166e-015 -18.5511 19.9075 2.71023 -7.4593e-006 -4.94057e-006 -3.00114 8.02972 -4.95127 0.697425 -78.5832 -17.2069 9.27119 -101.707 20.9694 -10.5403 -3.73249e-006 8.44189e-007 8.132e-007 -2.15224 22.8165 1.57964 1.02017e-005 1.07713e-006 3.00001 -8.02991 -4.95137 -0.697656 167.068 -10.5805 6.4699 180 7.01489e-015 178.695 179.714 16.5592 179.189 1.36967e-006 -3.0466e-006 0.314697 -19.3265 68.8209 20.2461 8.17565 26.9786 -1.1561 170.482 16.4415 13.3534 4.54188e-006 -4.6773e-006 -0.980591 -6.7811 -9.06314 -0.421691 -1.38162e-006 -7.33523e-006 0.0190949 25.2284 72.22 -24.2026 -8.13043 25.233 3.48515 
86.2019 94.1947 19.8975 -5.66686 8.24757 68.0783 -1.0759 0.144607 1.94544 -2.18726 4.26039 4.03585 -2.23938 5.90301 4.0774 -47.2814 -29.7436 -13.7235 36.3633 11.7736 -7.15331 12.188 -6.47196 -0.854616 -97.7045 53.7379 -137.953 -6.36111e-015 -4.77083e-015 9.54166e-015 -18.5607 18.423 2.43027 -7.4593e-006 -4.94057e-006 -3.00114 8.02972 -4.95127 0.697425 -78.5864 -17.2116 9.27294 -101.704 20.727 -10.6446 -3.73249e-006 8.44189e-007 8.132e-007 -2.15898 22.8259 1.58442 1.02017e-005 1.07713e-006 3.00001 -8.02991 -4.95137 -0.697656 167.142 -10.5647 6.41732 180 7.01489e-015 178.696 179.737 16.5261 179.186 1.36967e-006 -3.0466e-006 0.31531 -19.3396 68.8368 20.261 8.17742 26.8852 -1.27876 170.488 16.4742 13.3663 4.54188e-006 -4.6773e-006 -0.97793 -6.76717 -9.02365 -0.418188 -1.38162e-006 -7.33523e-006 0.0195031 25.2012 72.2145 -24.1931 -8.13043 25.233 3.48515 
86.2274 94.2032 19.9103 -5.75457 8.23969 68.2177 -1.07519 0.145261 1.94343 -2.18582 4.26194 4.03178 -2.23788 5.90457 4.0733 -47.2451 -29.805 -13.807 36.3468 11.8002 -7.2207 12.1694 -6.48997 -0.878719 -98.1262 53.4671 -138.235 -3.18055e-015 -1.59028e-015 -0 -18.5856 17.0844 2.18951 -7.4593e-006 -4.94057e-006 -3.00114 8.02972 -4.95127 0.697425 -78.5849 -17.2191 9.27617 -101.704 20.4879 -10.7533 -3.73249e-006 8.44189e-007 8.132e-007 -2.15934 22.8253 1.58695 1.02017e-005 1.07713e-006 3.00001 -8.02991 -4.95137 -0.697656 167.217 -10.5506 6.36563 180 -7.0149e-015 178.698 179.757 16.4904 179.184 1.36967e-006 -3.0466e-006 0.315751 -19.3515 68.8513 20.2747 8.17866 26.7966 -1.39513 170.496 16.5065 13.3773 4.54188e-006 -4.6773e-006 -0.975466 -6.75383 -8.98819 -0.414963 -1.38162e-006 -7.33523e-006 0.0198072 25.1775 72.2103 -24.1853 -8.13043 25.233 3.48515 
86.2521 94.2025 19.9205 -5.83966 8.2289 68.3544 -1.07437 0.146635 1.94083 -2.18401 4.26483 4.02651 -2.23601 5.90746 4.068 -47.2082 -29.8697 -13.8893 36.3326 11.8283 -7.28547 12.1478 -6.50259 -0.894514 -98.5588 53.2115 -138.367 -6.36111e-015 4.77083e-015 3.18055e-015 -18.6239 15.9127 1.992 -7.4593e-006 -4.94057e-006 -3.00114 8.02972 -4.95127 0.697425 -78.5782 -17.2298 9.28121 -101.711 20.253 -10.8665 -3.73249e-006 8.44189e-007 8.132e-007 -2.15245 22.813 1.58694 1.02017e-005 1.07713e-006 3.00001 -8.02991 -4.95137 -0.697656 167.292 -10.5382 6.31511 180 7.0149e-015 178.699 179.775 16.4515 179.182 1.36967e-006 -3.0466e-006 0.315996 -19.3623 68.8644 20.2873 8.1794 26.7136 -1.50418 170.506 16.5385 13.3863 4.54188e-006 -4.6773e-006 -0.973226 -6.74122 -8.95735 -0.412061 -1.38162e-006 -7.33523e-006 0.019993 25.1577 72.2073 -24.1793 -8.13043 25.233 3.48515 
86.2735 94.2037 19.9386 -5.9232 8.21548 68.4899 -1.07346 0.148422 1.93756 -2.18178 4.26844 4.01984 -2.2337 5.91108 4.06128 -47.1686 -29.938 -13.9696 36.3184 11.8592 -7.34794 12.1203 -6.51051 -0.902689 -99.0018 52.9652 -138.349 3.18055e-015 4.77083e-015 6.36111e-015 -18.6696 14.8894 1.82843 -7.4593e-006 -4.94057e-006 -3.00114 8.02972 -4.95127 0.697425 -78.5677 -17.2427 9.2874 -101.719 20.0209 -10.9861 -3.73249e-006 8.44189e-007 8.132e-007 -2.13885 22.7912 1.58459 1.02017e-005 1.07713e-006 3.00001 -8.02991 -4.95137 -0.697656 167.368 -10.527 6.26527 180 7.0149e-015 178.7 179.791 16.41 179.18 1.36967e-006 -3.0466e-006 0.316061 -19.372 68.8764 20.2989 8.17973 26.6345 -1.60839 170.517 16.57 13.3931 4.54188e-006 -4.6773e-006 -0.971064 -6.72924 -8.92911 -0.409363 -1.38162e-006 -7.33523e-006 0.0200886 25.1397 72.2051 -24.1741 -8.13043 25.233 3.48515 
86.2986 94.2154 19.9502 -6.00641 8.19982 68.6256 -1.07243 0.150225 1.93357 -2.17907 4.27198 4.01167 -2.23089 5.91464 4.05306 -47.1242 -30.0089 -14.047 36.302 11.8938 -7.40839 12.0863 -6.51468 -0.904561 -99.4546 52.7216 -138.198 3.18055e-015 -1.59028e-015 3.18055e-015 -18.7159 13.9774 1.68494 -7.4593e-006 -4.94057e-006 -3.00114 8.02972 -4.95127 0.697425 -78.5549 -17.256 9.29389 -101.725 19.7895 -11.1139 -3.73249e-006 8.44189e-007 8.132e-007 -2.1199 22.7633 1.58039 1.02017e-005 1.07713e-006 3.00001 -8.02991 -4.95137 -0.697656 167.447 -10.5164 6.21536 180 7.01491e-015 178.701 179.805 16.3667 179.18 1.36967e-006 -3.0466e-006 0.315987 -19.3812 68.8875 20.3099 8.1797 26.5569 -1.71081 170.531 16.601 13.3977 4.54188e-006 -4.6773e-006 -0.968839 -6.71767 -8.90136 -0.40673 -1.38162e-006 -7.33523e-006 0.0201314 25.1213 72.2027 -24.1685 -8.13043 25.233 3.48515 
86.323 94.2226 19.9729 -6.0891 8.18193 68.7612 -1.07127 0.152058 1.92893 -2.1759 4.27551 4.00215 -2.2276 5.91817 4.04348 -47.0752 -30.0818 -14.1216 36.2839 11.9312 -7.46677 12.0474 -6.51511 -0.900371 -99.9143 52.482 -137.931 -3.18055e-015 0 6.36111e-015 -18.7597 13.1693 1.5592 -7.4593e-006 -4.94057e-006 -3.00114 8.02972 -4.95127 0.697425 -78.5399 -17.2697 9.3007 -101.73 19.5588 -11.249 -3.73249e-006 8.44189e-007 8.132e-007 -2.09601 22.7297 1.5745 1.02017e-005 1.07713e-006 3.00001 -8.02991 -4.95137 -0.697656 167.528 -10.5062 6.16538 180 7.01491e-015 178.701 179.817 16.3216 179.179 1.36967e-006 -3.0466e-006 0.315784 -19.3897 68.8979 20.3204 8.17934 26.4811 -1.81125 170.548 16.6316 13.4002 4.54188e-006 -4.6773e-006 -0.966591 -6.70647 -8.87448 -0.404179 -1.38162e-006 -7.33523e-006 0.0201204 25.1032 72.2003 -24.1627 -8.13043 25.233 3.48515 
86.3458 94.2279 19.9849 -6.17108 8.16184 68.8963 -1.06998 0.153934 1.9237 -2.17228 4.27905 3.9914 -2.22384 5.92172 4.03265 -47.0222 -30.1561 -14.1932 36.2644 11.9705 -7.52302 12.0055 -6.51179 -0.89036 -100.378 52.2471 -137.564 -3.18055e-015 7.95139e-015 3.18055e-015 -18.7984 12.4575 1.44908 -7.4593e-006 -4.94057e-006 -3.00114 8.02972 -4.95127 0.697425 -78.5223 -17.2838 9.30786 -101.735 19.3286 -11.3906 -3.73249e-006 8.44189e-007 8.132e-007 -2.06759 22.6908 1.56706 1.02017e-005 1.07713e-006 3.00001 -8.02991 -4.95137 -0.697656 167.611 -10.4967 6.1153 180 7.01491e-015 178.702 179.828 16.2749 179.179 1.36967e-006 -3.0466e-006 0.315464 -19.3976 68.9075 20.3302 8.17866 26.4071 -1.9095 170.566 16.6617 13.4009 4.54188e-006 -4.6773e-006 -0.96436 -6.69557 -8.84885 -0.401722 -1.38162e-006 -7.33523e-006 0.0200549 25.0857 72.1982 -24.1571 -8.13043 25.233 3.48515 
86.3671 94.2263 20.0064 -6.25215 8.1396 69.0305 -1.06853 0.155867 1.91795 -2.16821 4.28265 3.97955 -2.21962 5.92534 4.02073 -46.9657 -30.2309 -14.2618 36.2441 12.0109 -7.57708 11.9622 -6.50473 -0.874768 -100.845 52.0175 -137.113 -3.18055e-015 -3.81667e-014 -0 -18.8297 11.8346 1.35262 -7.4593e-006 -4.94057e-006 -3.00114 8.02972 -4.95127 0.697425 -78.5022 -17.2983 9.31538 -101.739 19.0991 -11.5377 -3.73249e-006 8.44189e-007 8.132e-007 -2.03505 22.6469 1.55822 1.02017e-005 1.07713e-006 3.00001 -8.02991 -4.95137 -0.697656 167.696 -10.4878 6.06512 180 7.01491e-015 178.702 179.837 16.2267 179.179 1.36967e-006 -3.0466e-006 0.315039 -19.4049 68.9162 20.3394 8.17769 26.335 -2.00538 170.587 16.6915 13.3997 4.54188e-006 -4.6773e-006 -0.962185 -6.68493 -8.82484 -0.399375 -1.38162e-006 -7.33523e-006 0.0199341 25.0692 72.1964 -24.1519 -8.13043 25.233 3.48515 
